<?xml version="1.0" standalone="no"?>
<!DOCTYPE svg PUBLIC "-//W3C//DTD SVG 20010904//EN"
 "http://www.w3.org/TR/2001/REC-SVG-20010904/DTD/svg10.dtd">
<svg version="1.0" xmlns="http://www.w3.org/2000/svg"
 width="24.000000pt" height="24.000000pt" viewBox="0 0 24.000000 24.000000"
 preserveAspectRatio="xMidYMid meet">

<g transform="translate(0.000000,24.000000) scale(0.100000,-0.100000)"
fill="#000000" stroke="none">
<path d="M48 199 c-14 -8 -18 -24 -18 -77 0 -80 8 -112 26 -112 8 0 14 5 14
10 0 6 23 10 50 10 28 0 50 -4 50 -10 0 -5 6 -10 14 -10 18 0 26 32 26 112 0
56 -3 69 -19 78 -25 13 -121 13 -143 -1z m142 -59 l0 -30 -70 0 -70 0 0 30 0
30 70 0 70 0 0 -30z m-110 -75 c0 -8 -7 -15 -15 -15 -8 0 -15 7 -15 15 0 8 7
15 15 15 8 0 15 -7 15 -15z m110 0 c0 -8 -7 -15 -15 -15 -8 0 -15 7 -15 15 0
8 7 15 15 15 8 0 15 -7 15 -15z"/>
</g>
</svg>
