<?xml version="1.0" standalone="no"?>
<!DOCTYPE svg PUBLIC "-//W3C//DTD SVG 20010904//EN"
 "http://www.w3.org/TR/2001/REC-SVG-20010904/DTD/svg10.dtd">
<svg version="1.0" xmlns="http://www.w3.org/2000/svg"
 width="512.000000pt" height="512.000000pt" viewBox="0 0 512.000000 512.000000"
 preserveAspectRatio="xMidYMid meet">

<g transform="translate(0.000000,512.000000) scale(0.100000,-0.100000)"
fill="#000000" stroke="none">
<path d="M1805 5114 c-11 -2 -44 -9 -73 -15 -125 -25 -249 -93 -364 -199 -95
-86 -112 -147 -52 -186 46 -31 79 -21 151 46 84 79 149 120 243 155 66 24 93
28 220 33 l146 4 91 -213 91 -214 -366 -5 c-224 -4 -379 -10 -397 -16 -161
-58 -274 -196 -295 -360 -12 -89 -12 -3247 -1 -3336 28 -214 208 -378 416
-378 l59 0 -152 -153 c-141 -143 -152 -156 -152 -191 0 -48 36 -86 82 -86 28
0 56 24 248 215 l216 215 644 0 645 0 210 -210 c137 -137 219 -211 236 -215
31 -7 83 16 93 40 3 9 6 31 6 48 0 26 -22 52 -152 184 l-152 153 59 0 c208 0
388 164 416 378 11 89 11 3247 -1 3336 -21 164 -134 302 -295 360 -18 6 -173
12 -397 16 l-366 5 91 214 91 213 146 -4 c127 -5 154 -9 220 -33 94 -35 159
-76 243 -155 49 -46 74 -62 96 -62 67 -2 108 61 77 120 -34 67 -199 194 -309
239 -146 60 -97 57 -927 59 -421 1 -774 0 -785 -2z m1044 -176 c0 -7 -39 -103
-87 -213 l-87 -200 -115 0 -115 0 -87 200 c-48 110 -87 206 -87 213 -1 9 63
12 289 12 226 0 290 -3 289 -12z m751 -609 c60 -27 98 -64 126 -124 24 -49 24
-54 24 -377 l0 -328 -1190 0 -1190 0 0 328 c0 307 2 330 21 372 27 60 64 98
124 126 l50 24 995 0 c979 0 996 -1 1040 -21z m-1130 -1514 l0 -515 -550 0
-550 0 0 515 0 515 550 0 550 0 0 -515z m1280 0 l0 -515 -550 0 -550 0 0 515
0 515 550 0 550 0 0 -515z m0 -1352 l0 -668 -24 -50 c-28 -60 -66 -97 -126
-124 -44 -20 -61 -21 -1040 -21 l-995 0 -50 24 c-60 28 -97 66 -124 126 -20
44 -21 63 -21 713 l0 667 1190 0 1190 0 0 -667z"/>
<path d="M1775 4156 c-27 -12 -67 -41 -87 -64 -35 -39 -68 -119 -68 -167 0
-83 65 -186 144 -228 l41 -22 755 0 755 0 41 22 c59 31 110 93 128 154 20 66
20 82 0 148 -19 66 -73 127 -139 157 l-50 24 -735 0 -735 0 -50 -24z m1521
-170 c21 -18 28 -32 28 -61 0 -29 -7 -43 -28 -61 l-27 -24 -709 0 -709 0 -27
24 c-21 18 -28 32 -28 61 0 29 7 43 28 61 l27 24 709 0 709 0 27 -24z"/>
<path d="M1670 3147 c-53 -27 -62 -96 -18 -137 20 -18 35 -20 182 -20 176 1
188 4 207 58 14 41 -9 86 -52 101 -45 16 -287 14 -319 -2z"/>
<path d="M2179 3145 c-29 -16 -52 -66 -42 -93 22 -63 94 -82 138 -37 44 43 29
112 -29 135 -34 12 -35 12 -67 -5z"/>
<path d="M2950 3147 c-53 -27 -62 -96 -18 -137 20 -18 35 -20 183 -20 155 0
162 1 182 23 11 12 24 32 27 44 10 32 -18 79 -55 92 -45 16 -287 14 -319 -2z"/>
<path d="M3459 3145 c-29 -16 -52 -66 -42 -93 22 -63 94 -82 138 -37 42 41 31
105 -22 133 -28 15 -42 15 -74 -3z"/>
<path d="M1685 1937 c-93 -45 -144 -127 -145 -230 0 -97 45 -175 129 -220 66
-37 124 -43 195 -23 221 64 245 372 37 473 -20 9 -65 19 -101 20 -53 3 -74 -1
-115 -20z m162 -169 c31 -34 36 -63 18 -98 -20 -39 -58 -54 -98 -40 -39 13
-56 37 -57 78 0 71 91 110 137 60z"/>
<path d="M3244 1947 c-183 -69 -228 -301 -84 -431 128 -115 337 -64 406 99 34
83 5 214 -62 277 -65 61 -180 85 -260 55z m141 -182 c28 -27 33 -79 11 -108
-20 -26 -68 -40 -99 -28 -32 12 -60 64 -51 94 20 67 93 89 139 42z"/>
<path d="M1566 1255 c-26 -24 -26 -26 -26 -158 0 -128 1 -137 28 -188 31 -60
93 -113 150 -129 51 -14 1633 -14 1684 0 57 16 119 69 150 129 27 51 28 60 28
188 0 132 0 134 -26 158 l-27 25 -967 0 -967 0 -27 -25z m1844 -205 c0 -53 -3
-64 -26 -85 l-27 -25 -797 0 -797 0 -27 25 c-23 21 -26 32 -26 85 l0 60 850 0
850 0 0 -60z"/>
</g>
</svg>
